HIERARCHY
ROOT hip
{
  OFFSET 0 90.174 2.4664
  CHANNELS 6 Xposition Yposition Zposition Zrotation Xrotation Yrotation
  JOINT abdomen
  {
    OFFSET 0 -1.186 -1.5018
    CHANNELS 6 Xposition Yposition Zposition Zrotation Xrotation Yrotation
    JOINT abdomen2
    {
      OFFSET 0 9.964 0.2134
      CHANNELS 6 Xposition Yposition Zposition Zrotation Xrotation Yrotation
      JOINT chest
      {
        OFFSET 0 13.134 -3.2573
        CHANNELS 6 Xposition Yposition Zposition Zrotation Xrotation Yrotation
        JOINT neck
        {
          OFFSET 0 20.686 -1.6905
          CHANNELS 6 Xposition Yposition Zposition Zrotation Xrotation Yrotation
          JOINT head
          {
            OFFSET 0 7.238 -0.1237
            CHANNELS 6 Xposition Yposition Zposition Zrotation Xrotation Yrotation
            End Site
            {
              OFFSET 0 0 0
            }
          }
        }
        JOINT lCollar
        {
          OFFSET 1.7069 20.075 5.0056
          CHANNELS 6 Xposition Yposition Zposition Zrotation Xrotation Yrotation
          JOINT lShldr
          {
            OFFSET 13.6458 -0.047 -4.849
            CHANNELS 6 Xposition Yposition Zposition Zrotation Xrotation Yrotation
            JOINT lForeArm
            {
              OFFSET 28.3255 -0.9759 2.2888
              CHANNELS 6 Xposition Yposition Zposition Zrotation Xrotation Yrotation
              JOINT lHand
              {
                OFFSET 22.1583 -0.53 10.8316
                CHANNELS 6 Xposition Yposition Zposition Zrotation Xrotation Yrotation
                JOINT lThumb1
                {
                  OFFSET 0.786 0.112 2.5817
                  CHANNELS 6 Xposition Yposition Zposition Zrotation Xrotation Yrotation
                  JOINT lThumb2
                  {
                    OFFSET 0.3601 -0.878 4.2331
                    CHANNELS 6 Xposition Yposition Zposition Zrotation Xrotation Yrotation
                    JOINT lThumb2_End
                    {
                      OFFSET 1.8127 -1.216 2.2227
                      CHANNELS 6 Xposition Yposition Zposition Zrotation Xrotation Yrotation
                      End Site
                      {
                        OFFSET 0.0181 -0.0122 0.0222
                      }
                    }
                  }
                }
                JOINT lCarpal1
                {
                  OFFSET 0.9571 1.114 1.7695
                  CHANNELS 6 Xposition Yposition Zposition Zrotation Xrotation Yrotation
                  JOINT lIndex1
                  {
                    OFFSET 4.1246 0.487 4.1451
                    CHANNELS 6 Xposition Yposition Zposition Zrotation Xrotation Yrotation
                    JOINT lIndex2
                    {
                      OFFSET 3.4052 -1.454 2.7682
                      CHANNELS 6 Xposition Yposition Zposition Zrotation Xrotation Yrotation
                      JOINT lIndex2_End
                      {
                        OFFSET 1.4531 -1.795 1.2713
                        CHANNELS 6 Xposition Yposition Zposition Zrotation Xrotation Yrotation
                        End Site
                        {
                          OFFSET 0.0145 -0.0179 0.0127
                        }
                      }
                    }
                  }
                  JOINT lMid1
                  {
                    OFFSET 5.6954 0.21 2.1184
                    CHANNELS 6 Xposition Yposition Zposition Zrotation Xrotation Yrotation
                    JOINT lMid2
                    {
                      OFFSET 3.9766 -1.54 2.3863
                      CHANNELS 6 Xposition Yposition Zposition Zrotation Xrotation Yrotation
                      JOINT lMid2_End
                      {
                        OFFSET 1.4042 -1.926 1.125
                        CHANNELS 6 Xposition Yposition Zposition Zrotation Xrotation Yrotation
                        End Site
                        {
                          OFFSET 0.014 -0.0193 0.0113
                        }
                      }
                    }
                  }
                }
                JOINT lCarpal2
                {
                  OFFSET 2.0956 0.66 -0.3894
                  CHANNELS 6 Xposition Yposition Zposition Zrotation Xrotation Yrotation
                  JOINT lRing1
                  {
                    OFFSET 5.0395 -0.09 2.4971
                    CHANNELS 6 Xposition Yposition Zposition Zrotation Xrotation Yrotation
                    JOINT lRing2
                    {
                      OFFSET 3.7921 -1.552 1.4806
                      CHANNELS 6 Xposition Yposition Zposition Zrotation Xrotation Yrotation
                      JOINT lRing2_End
                      {
                        OFFSET 1.4655 -1.808 0.9609
                        CHANNELS 6 Xposition Yposition Zposition Zrotation Xrotation Yrotation
                        End Site
                        {
                          OFFSET 0.0147 -0.0181 0.0096
                        }
                      }
                    }
                  }
                  JOINT lPinky1
                  {
                    OFFSET 4.9141 -1.269 0.3591
                    CHANNELS 6 Xposition Yposition Zposition Zrotation Xrotation Yrotation
                    JOINT lPinky2
                    {
                      OFFSET 3.1477 -1.685 0.8462
                      CHANNELS 6 Xposition Yposition Zposition Zrotation Xrotation Yrotation
                      JOINT lPinky2_End
                      {
                        OFFSET 0.8055 -1.585 0.7955
                        CHANNELS 6 Xposition Yposition Zposition Zrotation Xrotation Yrotation
                        End Site
                        {
                          OFFSET 0.0081 -0.0158 0.008
                        }
                      }
                    }
                  }
                }
              }
            }
          }
        }
        JOINT rCollar
        {
          OFFSET -1.7069 20.075 5.0056
          CHANNELS 6 Xposition Yposition Zposition Zrotation Xrotation Yrotation
          JOINT rShldr
          {
            OFFSET -13.6458 -0.047 -4.849
            CHANNELS 6 Xposition Yposition Zposition Zrotation Xrotation Yrotation
            JOINT rForeArm
            {
              OFFSET -28.3255 -0.9759 2.2888
              CHANNELS 6 Xposition Yposition Zposition Zrotation Xrotation Yrotation
              JOINT rHand
              {
                OFFSET -22.1583 -0.53 10.8316
                CHANNELS 6 Xposition Yposition Zposition Zrotation Xrotation Yrotation
                JOINT rThumb1
                {
                  OFFSET -0.786 0.112 2.5817
                  CHANNELS 6 Xposition Yposition Zposition Zrotation Xrotation Yrotation
                  JOINT rThumb2
                  {
                    OFFSET -0.3601 -0.878 4.2331
                    CHANNELS 6 Xposition Yposition Zposition Zrotation Xrotation Yrotation
                    JOINT rThumb2_End
                    {
                      OFFSET -1.8127 -1.216 2.2227
                      CHANNELS 6 Xposition Yposition Zposition Zrotation Xrotation Yrotation
                      End Site
                      {
                        OFFSET -0.0181 -0.0122 0.0222
                      }
                    }
                  }
                }
                JOINT rCarpal1
                {
                  OFFSET -0.9571 1.114 1.7695
                  CHANNELS 6 Xposition Yposition Zposition Zrotation Xrotation Yrotation
                  JOINT rIndex1
                  {
                    OFFSET -4.1246 0.487 4.1451
                    CHANNELS 6 Xposition Yposition Zposition Zrotation Xrotation Yrotation
                    JOINT rIndex2
                    {
                      OFFSET -3.4052 -1.454 2.7682
                      CHANNELS 6 Xposition Yposition Zposition Zrotation Xrotation Yrotation
                      JOINT rIndex2_End
                      {
                        OFFSET -1.4531 -1.795 1.2713
                        CHANNELS 6 Xposition Yposition Zposition Zrotation Xrotation Yrotation
                        End Site
                        {
                          OFFSET -0.0145 -0.018 0.0127
                        }
                      }
                    }
                  }
                  JOINT rMid1
                  {
                    OFFSET -5.6954 0.21 2.1184
                    CHANNELS 6 Xposition Yposition Zposition Zrotation Xrotation Yrotation
                    JOINT rMid2
                    {
                      OFFSET -3.9766 -1.54 2.3863
                      CHANNELS 6 Xposition Yposition Zposition Zrotation Xrotation Yrotation
                      JOINT rMid2_End
                      {
                        OFFSET -1.4042 -1.926 1.125
                        CHANNELS 6 Xposition Yposition Zposition Zrotation Xrotation Yrotation
                        End Site
                        {
                          OFFSET -0.014 -0.0193 0.0113
                        }
                      }
                    }
                  }
                }
                JOINT rCarpal2
                {
                  OFFSET -2.0956 0.66 -0.3894
                  CHANNELS 6 Xposition Yposition Zposition Zrotation Xrotation Yrotation
                  JOINT rRing1
                  {
                    OFFSET -5.0395 -0.09 2.4971
                    CHANNELS 6 Xposition Yposition Zposition Zrotation Xrotation Yrotation
                    JOINT rRing2
                    {
                      OFFSET -3.7921 -1.552 1.4806
                      CHANNELS 6 Xposition Yposition Zposition Zrotation Xrotation Yrotation
                      JOINT rRing2_End
                      {
                        OFFSET -1.4655 -1.808 0.9609
                        CHANNELS 6 Xposition Yposition Zposition Zrotation Xrotation Yrotation
                        End Site
                        {
                          OFFSET -0.0147 -0.0181 0.0096
                        }
                      }
                    }
                  }
                  JOINT rPinky1
                  {
                    OFFSET -4.9141 -1.269 0.3592
                    CHANNELS 6 Xposition Yposition Zposition Zrotation Xrotation Yrotation
                    JOINT rPinky2
                    {
                      OFFSET -3.1477 -1.685 0.8462
                      CHANNELS 6 Xposition Yposition Zposition Zrotation Xrotation Yrotation
                      JOINT rPinky2_End
                      {
                        OFFSET -0.8055 -1.585 0.7955
                        CHANNELS 6 Xposition Yposition Zposition Zrotation Xrotation Yrotation
                        End Site
                        {
                          OFFSET -0.0081 -0.0158 0.008
                        }
                      }
                    }
                  }
                }
              }
            }
          }
        }
      }
    }
  }
  JOINT lThigh
  {
    OFFSET 8.367 -8.2066 0.5982
    CHANNELS 6 Xposition Yposition Zposition Zrotation Xrotation Yrotation
    JOINT lShin
    {
      OFFSET 2.1923 -43.463 -0.4932
      CHANNELS 6 Xposition Yposition Zposition Zrotation Xrotation Yrotation
      JOINT lFoot
      {
        OFFSET 0.7333 -45.8593 -2.6451
        CHANNELS 6 Xposition Yposition Zposition Zrotation Xrotation Yrotation
        End Site
        {
          OFFSET 2.6618 -4.2699 12.3931
        }
      }
    }
  }
  JOINT rThigh
  {
    OFFSET -8.367 -8.2066 0.5982
    CHANNELS 6 Xposition Yposition Zposition Zrotation Xrotation Yrotation
    JOINT rShin
    {
      OFFSET -2.1923 -43.463 -0.4931
      CHANNELS 6 Xposition Yposition Zposition Zrotation Xrotation Yrotation
      JOINT rFoot
      {
        OFFSET -0.7333 -45.8593 -2.6451
        CHANNELS 6 Xposition Yposition Zposition Zrotation Xrotation Yrotation
        End Site
        {
          OFFSET -2.6618 -4.2699 12.3931
        }
      }
    }
  }
}
MOTION
Frames:	4
Frame Time:	0.0333333
0 90.174 2.4664 0 0 -0 0 -1.186 -1.5018 0 0 -0 0 9.964 0.2134 0 0 -0 0 13.134 -3.2573 0 0 -0 0 20.686 -1.6905 0 0 -0 0 7.238 -0.1237 0 0 -0 1.7069 20.075 5.0056 0 0 -0 13.6458 -0.047 -4.849 1.66051 0.0835086 5.75766 28.3255 -0.9759 2.2888 -0.0175111 0.895433 15.7816 22.1583 -0.53 10.8316 7.95139e-016 -1.98785e-016 -0 0.786 0.112 2.5817 5.46658e-016 -3.97569e-016 -0 0.3601 -0.878 4.2331 5.96354e-016 0 -0 1.8127 -1.216 2.2227 3.97569e-016 1.98785e-016 9.54166e-015 0.9571 1.114 1.7695 1.49089e-016 -3.97569e-016 -0 4.1246 0.487 4.1451 6.4605e-016 0 3.18055e-015 3.4052 -1.454 2.7682 5.96354e-016 0 3.18055e-015 1.4531 -1.795 1.2713 8.94531e-016 -1.98785e-016 6.36111e-015 5.6954 0.21 2.1184 6.4605e-016 0 3.18055e-015 3.9766 -1.54 2.3863 5.96354e-016 0 3.18055e-015 1.4042 -1.926 1.125 8.94531e-016 -1.98785e-016 6.36111e-015 2.0956 0.66 -0.3894 1.49089e-016 -3.97569e-016 -0 5.0395 -0.09 2.4971 6.4605e-016 0 3.18055e-015 3.7921 -1.552 1.4806 5.96354e-016 0 3.18055e-015 1.4655 -1.808 0.9609 8.94531e-016 -1.98785e-016 6.36111e-015 4.9141 -1.269 0.3591 6.4605e-016 0 3.18055e-015 3.1477 -1.685 0.8462 5.96354e-016 0 3.18055e-015 0.8055 -1.585 0.7955 8.94531e-016 -1.98785e-016 6.36111e-015 -1.7069 20.075 5.0056 0 0 -0 -13.6458 -0.047 -4.849 -1.4496 0.0636048 -5.0245 -28.3255 -0.9759 2.2888 -1.74811 1.20616 -16.8394 -22.1583 -0.53 10.8316 -1.19271e-015 1.98785e-016 -3.18055e-015 -0.786 0.112 2.5817 -3.97569e-016 1.98785e-016 -3.18055e-015 -0.3601 -0.878 4.2331 -2.98177e-016 1.98785e-016 -3.18055e-015 -1.8127 -1.216 2.2227 -2.98177e-016 3.97569e-016 -0 -0.9571 1.114 1.7695 4.96962e-016 0 -6.36111e-015 -4.1246 0.487 4.1451 -9.93923e-017 3.97569e-016 -0 -3.4052 -1.454 2.7682 -8.94531e-016 5.96354e-016 -0 -1.4531 -1.795 1.2713 -3.97569e-016 3.97569e-016 -0 -5.6954 0.21 2.1184 -9.93923e-017 3.97569e-016 -0 -3.9766 -1.54 2.3863 -8.94531e-016 5.96354e-016 -0 -1.4042 -1.926 1.125 -3.97569e-016 3.97569e-016 -0 -2.0956 0.66 -0.3894 4.96962e-016 0 -6.36111e-015 -5.0395 -0.09 2.4971 -9.93923e-017 3.97569e-016 -0 -3.7921 -1.552 1.4806 -8.94531e-016 5.96354e-016 -0 -1.4655 -1.808 0.9609 -3.97569e-016 3.97569e-016 -0 -4.9141 -1.269 0.3592 -9.93923e-017 3.97569e-016 -0 -3.1477 -1.685 0.8462 -8.94531e-016 5.96354e-016 -0 -0.8055 -1.585 0.7955 -3.97569e-016 3.97569e-016 -0 8.367 -8.2066 0.5982 -4.66115 -1.03232 0.120763 2.1923 -43.463 -0.4932 0.00990601 1.55097 0.177175 0.7333 -45.8593 -2.6451 4.65196 -0.54114 -0.255042 -8.367 -8.2066 0.5982 4.66115 -1.03222 -0.120763 -2.1923 -43.463 -0.4931 -0.00990459 1.5509 -0.177176 -0.7333 -45.8593 -2.6451 -4.65196 -0.541171 0.255041 
7.13944e-005 24.6393 -64.211 -0 -66.6681 -0 0 -1.186 -1.5018 -0.0467619 6.36214 -0.0806386 0 9.964 0.2134 -0.0852452 12.7244 -0.157486 5.55112e-017 13.134 -3.2573 -0.0852451 12.7244 -0.157486 0 20.686 -1.6905 3.2916e-007 13.3607 2.17926e-008 0 7.238 -0.1237 1.919e-008 6.70105 -1.31415e-007 1.7069 20.075 5.0056 0.461494 0.249691 6.33505 13.6458 -0.047 -4.849 -55.5817 1.20382 28.1779 28.3255 -0.9759 2.2888 22.3513 10.9008 -42.4519 22.1583 -0.53 10.8316 1.89528 18.0525 -1.51688 0.786 0.112 2.5817 8.74653e-015 -6.36111e-015 6.36111e-015 0.3601 -0.878 4.2331 2.49282e-007 -7.87489e-007 -2.14342e-007 1.8127 -1.216 2.2227 2.49282e-007 -7.87489e-007 -2.14342e-007 0.9571 1.114 1.7695 2.38542e-015 -4.77083e-015 3.18055e-015 4.1246 0.487 4.1451 1.19271e-015 -5.56597e-015 1.27222e-014 3.4052 -1.454 2.7682 2.49282e-007 -7.87489e-007 -2.14342e-007 1.4531 -1.795 1.2713 2.49282e-007 -7.87489e-007 -2.14342e-007 5.6954 0.21 2.1184 1.19271e-015 -5.56597e-015 1.27222e-014 3.9766 -1.54 2.3863 2.49282e-007 -7.87489e-007 -2.14342e-007 1.4042 -1.926 1.125 2.49282e-007 -7.87489e-007 -2.14342e-007 2.0956 0.66 -0.3894 2.38542e-015 -4.77083e-015 3.18055e-015 5.0395 -0.09 2.4971 1.19271e-015 -5.56597e-015 1.27222e-014 3.7921 -1.552 1.4806 2.49282e-007 -7.87489e-007 -2.14342e-007 1.4655 -1.808 0.9609 2.49282e-007 -7.87489e-007 -2.14342e-007 4.9141 -1.269 0.3591 1.19271e-015 -5.56597e-015 1.27222e-014 3.1477 -1.685 0.8462 2.49282e-007 -7.87489e-007 -2.14342e-007 0.8055 -1.585 0.7955 2.49282e-007 -7.87489e-007 -2.14342e-007 -1.7069 20.075 5.0056 -0.454631 0.246272 -6.3235 -13.6458 -0.047 -4.849 55.7406 1.11364 -27.4482 -28.3255 -0.9759 2.2888 -23.5331 10.0235 41.6203 -22.1583 -0.53 10.8316 -2.08989 17.9783 2.04304 -0.786 0.112 2.5817 1.28537e-006 -1.4906e-006 -1.84347e-006 -0.3601 -0.878 4.2331 -3.78048e-006 -1.40755e-006 1.44213e-006 -1.8127 -1.216 2.2227 -2.00459e-006 -9.27609e-007 -1.61009e-006 -0.9571 1.114 1.7695 -1.59028e-015 -2.38542e-015 -3.18055e-015 -4.1246 0.487 4.1451 1.28537e-006 -1.4906e-006 -1.84347e-006 -3.4052 -1.454 2.7682 -3.78048e-006 -1.40755e-006 1.44213e-006 -1.4531 -1.795 1.2713 -2.00459e-006 -9.27609e-007 -1.61009e-006 -5.6954 0.21 2.1184 1.28537e-006 -1.4906e-006 -1.84347e-006 -3.9766 -1.54 2.3863 -3.78048e-006 -1.40755e-006 1.44213e-006 -1.4042 -1.926 1.125 -2.00459e-006 -9.27609e-007 -1.61009e-006 -2.0956 0.66 -0.3894 -1.59028e-015 -2.38542e-015 -3.18055e-015 -5.0395 -0.09 2.4971 1.28537e-006 -1.4906e-006 -1.84347e-006 -3.7921 -1.552 1.4806 -3.78048e-006 -1.40755e-006 1.44213e-006 -1.4655 -1.808 0.9609 -2.00459e-006 -9.27609e-007 -1.61009e-006 -4.9141 -1.269 0.3592 1.28537e-006 -1.4906e-006 -1.84347e-006 -3.1477 -1.685 0.8462 -3.78048e-006 -1.40755e-006 1.44213e-006 -0.8055 -1.585 0.7955 -2.00459e-006 -9.27609e-007 -1.61009e-006 8.367 -8.2066 0.5982 26.3699 -32.7903 6.53063 2.1923 -43.463 -0.4932 -4.13231 71.4815 7.92035 0.7333 -45.8593 -2.6451 10.3781 17.472 0.790868 -8.367 -8.2066 0.5982 -26.3912 -32.789 -6.56028 -2.1923 -43.463 -0.4931 4.12806 71.4802 -7.91912 -0.7333 -45.8593 -2.6451 -10.4021 17.468 -0.776543 
-0.000350641 -7.83027 -91.0913 -180 -83.3313 -180 0 -1.186 -1.5018 -0.0670395 9.11552 -0.11652 0 9.964 0.2134 -0.117295 18.2312 -0.226466 0 13.134 -3.2573 -0.117295 18.2311 -0.226466 2.22045e-016 20.686 -1.6905 1.21772e-006 19.2312 -3.38093e-007 2.22045e-016 7.238 -0.1237 3.28865e-008 9.54106 -1.17394e-007 1.7069 20.075 5.0056 0.623713 0.716469 9.38698 13.6458 -0.047 -4.849 -81.4547 1.6503 38.2565 28.3255 -0.9759 2.2888 35.8518 0.758297 -65.5617 22.1583 -0.53 10.8316 3.06114 26.3365 -3.03672 0.786 0.112 2.5817 -1.59028e-015 1.19271e-015 -0 0.3601 -0.878 4.2331 1.59028e-015 1.98785e-015 9.54166e-015 1.8127 -1.216 2.2227 1.59028e-015 5.1684e-015 3.18055e-015 0.9571 1.114 1.7695 -7.95139e-016 3.97569e-016 -3.18055e-015 4.1246 0.487 4.1451 3.53113e-031 -6.36111e-015 3.18055e-015 3.4052 -1.454 2.7682 -1.59028e-015 2.78299e-015 6.36111e-015 1.4531 -1.795 1.2713 -3.18055e-015 3.97569e-015 -0 5.6954 0.21 2.1184 3.53113e-031 -6.36111e-015 3.18055e-015 3.9766 -1.54 2.3863 -1.59028e-015 2.78299e-015 6.36111e-015 1.4042 -1.926 1.125 -3.18055e-015 3.97569e-015 -0 2.0956 0.66 -0.3894 -7.95139e-016 3.97569e-016 -3.18055e-015 5.0395 -0.09 2.4971 3.53113e-031 -6.36111e-015 3.18055e-015 3.7921 -1.552 1.4806 -1.59028e-015 2.78299e-015 6.36111e-015 1.4655 -1.808 0.9609 -3.18055e-015 3.97569e-015 -0 4.9141 -1.269 0.3591 3.53113e-031 -6.36111e-015 3.18055e-015 3.1477 -1.685 0.8462 -1.59028e-015 2.78299e-015 6.36111e-015 0.8055 -1.585 0.7955 -3.18055e-015 3.97569e-015 -0 -1.7069 20.075 5.0056 -0.65926 0.729186 -9.44026 -13.6458 -0.047 -4.849 81.6539 1.50139 -37.5372 -28.3255 -0.9759 2.2888 -36.5991 -0.319057 64.5882 -22.1583 -0.53 10.8316 -3.41856 26.2579 3.9012 -0.786 0.112 2.5817 8.82781e-031 -3.97569e-015 1.27222e-014 -0.3601 -0.878 4.2331 -2.15697e-006 7.23472e-007 -1.91698e-006 -1.8127 -1.216 2.2227 -1.11648e-007 -1.29329e-006 2.51561e-006 -0.9571 1.114 1.7695 6.62086e-031 -3.97569e-015 9.54166e-015 -4.1246 0.487 4.1451 1.59028e-015 1.11319e-014 2.22639e-014 -3.4052 -1.454 2.7682 -2.15697e-006 7.23472e-007 -1.91698e-006 -1.4531 -1.795 1.2713 -1.11648e-007 -1.29329e-006 2.51561e-006 -5.6954 0.21 2.1184 1.59028e-015 1.11319e-014 2.22639e-014 -3.9766 -1.54 2.3863 -2.15697e-006 7.23472e-007 -1.91698e-006 -1.4042 -1.926 1.125 -1.11648e-007 -1.29329e-006 2.51561e-006 -2.0956 0.66 -0.3894 6.62086e-031 -3.97569e-015 9.54166e-015 -5.0395 -0.09 2.4971 1.59028e-015 1.11319e-014 2.22639e-014 -3.7921 -1.552 1.4806 -2.15697e-006 7.23472e-007 -1.91698e-006 -1.4655 -1.808 0.9609 -1.11648e-007 -1.29329e-006 2.51561e-006 -4.9141 -1.269 0.3592 1.59028e-015 1.11319e-014 2.22639e-014 -3.1477 -1.685 0.8462 -2.15697e-006 7.23472e-007 -1.91698e-006 -0.8055 -1.585 0.7955 -1.11648e-007 -1.29329e-006 2.51561e-006 8.367 -8.2066 0.5982 42.371 -47.2962 12.3891 2.1923 -43.463 -0.4932 -171.845 75.6634 177.91 0.7333 -45.8593 -2.6451 12.1367 24.6393 2.30752 -8.367 -8.2066 0.5982 -42.2761 -47.3033 -12.2801 -2.1923 -43.463 -0.4931 171.836 75.6618 -177.915 -0.7333 -45.8593 -2.6451 -12.06 24.6555 -2.37113 
-0.000735904 -0.581608 -85.3048 -180 -89.9981 -180 0 -1.186 -1.5018 -0.0612927 8.26032 -0.109371 1.38778e-017 9.964 0.2134 -0.108171 16.5207 -0.213083 0 13.134 -3.2573 -0.108171 16.5207 -0.213083 1.11022e-016 20.686 -1.6905 3.29489e-006 17.6113 -1.37987e-006 0 7.238 -0.1237 3.68311e-008 8.51996 7.30192e-010 1.7069 20.075 5.0056 0.533124 1.40704 9.15639 13.6458 -0.047 -4.849 -75.5054 1.63865 35.9796 28.3255 -0.9759 2.2888 33.1688 3.81195 -60.9047 22.1583 -0.53 10.8316 2.51916 25.0475 -2.63809 0.786 0.112 2.5817 5.56597e-015 -3.37934e-015 -0 0.3601 -0.878 4.2331 4.77083e-015 -8.54774e-015 -0 1.8127 -1.216 2.2227 3.18055e-015 -3.37934e-015 3.18055e-015 0.9571 1.114 1.7695 3.97569e-015 9.93923e-016 3.18055e-015 4.1246 0.487 4.1451 3.97252e-031 -3.57812e-015 6.36111e-015 3.4052 -1.454 2.7682 1.19271e-015 -8.34896e-015 3.18055e-015 1.4531 -1.795 1.2713 3.18055e-015 -1.17283e-014 6.36111e-015 5.6954 0.21 2.1184 3.97252e-031 -3.57812e-015 6.36111e-015 3.9766 -1.54 2.3863 1.19271e-015 -8.34896e-015 3.18055e-015 1.4042 -1.926 1.125 3.18055e-015 -1.17283e-014 6.36111e-015 2.0956 0.66 -0.3894 3.97569e-015 9.93923e-016 3.18055e-015 5.0395 -0.09 2.4971 3.97252e-031 -3.57812e-015 6.36111e-015 3.7921 -1.552 1.4806 1.19271e-015 -8.34896e-015 3.18055e-015 1.4655 -1.808 0.9609 3.18055e-015 -1.17283e-014 6.36111e-015 4.9141 -1.269 0.3591 3.97252e-031 -3.57812e-015 6.36111e-015 3.1477 -1.685 0.8462 1.19271e-015 -8.34896e-015 3.18055e-015 0.8055 -1.585 0.7955 3.18055e-015 -1.17283e-014 6.36111e-015 -1.7069 20.075 5.0056 -0.657692 1.45533 -9.35078 -13.6458 -0.047 -4.849 75.8579 1.43323 -35.2793 -28.3255 -0.9759 2.2888 -34.0157 2.69202 59.8428 -22.1583 -0.53 10.8316 -2.86417 25.0948 3.56527 -0.786 0.112 2.5817 -3.01893e-006 -2.14925e-006 9.00506e-007 -0.3601 -0.878 4.2331 -1.83038e-006 -6.1727e-007 3.38922e-006 -1.8127 -1.216 2.2227 -3.7047e-006 9.19575e-008 8.31772e-007 -0.9571 1.114 1.7695 2.38542e-015 -1.19271e-015 -6.36111e-015 -4.1246 0.487 4.1451 -3.01893e-006 -2.14925e-006 9.00506e-007 -3.4052 -1.454 2.7682 -1.83038e-006 -6.1727e-007 3.38922e-006 -1.4531 -1.795 1.2713 -3.7047e-006 9.19575e-008 8.31772e-007 -5.6954 0.21 2.1184 -3.01893e-006 -2.14925e-006 9.00506e-007 -3.9766 -1.54 2.3863 -1.83038e-006 -6.1727e-007 3.38922e-006 -1.4042 -1.926 1.125 -3.7047e-006 9.19575e-008 8.31772e-007 -2.0956 0.66 -0.3894 2.38542e-015 -1.19271e-015 -6.36111e-015 -5.0395 -0.09 2.4971 -3.01893e-006 -2.14925e-006 9.00506e-007 -3.7921 -1.552 1.4806 -1.83038e-006 -6.1727e-007 3.38922e-006 -1.4655 -1.808 0.9609 -3.7047e-006 9.19575e-008 8.31772e-007 -4.9141 -1.269 0.3592 -3.01893e-006 -2.14925e-006 9.00506e-007 -3.1477 -1.685 0.8462 -1.83038e-006 -6.1727e-007 3.38922e-006 -0.8055 -1.585 0.7955 -3.7047e-006 9.19575e-008 8.31772e-007 8.367 -8.2066 0.5982 38.0969 -44.1331 10.0915 2.1923 -43.463 -0.4932 -164.402 82.8188 169.888 0.7333 -45.8593 -2.6451 11.3914 23.1468 2.18663 -8.367 -8.2066 0.5982 -37.7675 -44.1441 -9.69145 -2.1923 -43.463 -0.4931 164.402 82.819 -169.904 -0.7333 -45.8593 -2.6451 -11.0894 23.2088 -2.41994 
